<svg width="100" height="100" viewBox="0 0 100 100" class="icon"  version="1.1" xmlns="http://www.w3.org/2000/svg">
  <defs>
    <mask id="die-4">
      <path d="M386.2 899.3H109.9c-42.5 0-77-34.5-77-77V545.9c0-42.5 34.5-77 77-77h276.4c42.5 0 77 34.5 77 77v276.4c0 42.5-34.5 77-77.1 77z" fill="white" />
      <path d="M146.2 567.8m-35 0a35 35 0 1 0 70 0 35 35 0 1 0-70 0Z" fill="black" />
      <path d="M146.2 617.8c-27.6 0-50-22.4-50-50s22.4-50 50-50 50 22.4 50 50-22.5 50-50 50z m0-70c-11 0-20 9-20 20s9 20 20 20 20-9 20-20-9-20-20-20z" fill="black" />
      <path d="M350 567.8m-35 0a35 35 0 1 0 70 0 35 35 0 1 0-70 0Z" fill="black" />
      <path d="M350 617.8c-27.6 0-50-22.4-50-50s22.4-50 50-50 50 22.4 50 50-22.4 50-50 50z m0-70c-11 0-20 9-20 20s9 20 20 20 20-9 20-20-9-20-20-20z" fill="black" />
      <path d="M146.2 800.3m-35 0a35 35 0 1 0 70 0 35 35 0 1 0-70 0Z" fill="black" />
      <path d="M146.2 850.3c-27.6 0-50-22.4-50-50s22.4-50 50-50 50 22.4 50 50-22.5 50-50 50z m0-70c-11 0-20 9-20 20s9 20 20 20 20-9 20-20-9-20-20-20z" fill="black" />
      <path d="M350 800.3m-35 0a35 35 0 1 0 70 0 35 35 0 1 0-70 0Z" fill="black" />
      <path d="M350 850.3c-27.6 0-50-22.4-50-50s22.4-50 50-50 50 22.4 50 50-22.4 50-50 50z m0-70c-11 0-20 9-20 20s9 20 20 20 20-9 20-20-9-20-20-20z" fill="black" />
    </mask>
    <mask id="die-3">
      <path d="M932 500.3L691.2 635.9c-37.1 20.9-84 7.7-104.9-29.3L450.7 365.8c-20.9-37.1-7.7-84 29.3-104.9l240.8-135.6c37.1-20.9 84-7.7 104.9 29.3l135.6 240.8c20.9 37.1 7.7 84.1-29.3 104.9z" fill="black" />
    </mask>
  </defs>

  <!-- Dice -->
  <g transform="scale(0.05) translate(950, 800)" fill="currentColor">
    <path d="M386.2 899.3H109.9c-42.5 0-77-34.5-77-77V545.9c0-42.5 34.5-77 77-77h276.4c42.5 0 77 34.5 77 77v276.4c0 42.5-34.5 77-77.1 77z" mask="url(#die-4)" />
    <path d="M386.2 914.3H109.9c-50.7 0-92-41.3-92-92V545.9c0-50.7 41.3-92 92-92h276.4c50.7 0 92 41.3 92 92v276.4c0 50.7-41.3 92-92.1 92zM109.9 483.9c-34.2 0-62 27.8-62 62v276.4c0 34.2 27.8 62 62 62h276.4c34.2 0 62-27.8 62-62V545.9c0-34.2-27.8-62-62-62H109.9z" />
    <path d="M248.1 684.1m-35 0a35 35 0 1 0 70 0 35 35 0 1 0-70 0Z" />
    <path d="M248.1 734.1c-27.6 0-50-22.4-50-50s22.4-50 50-50 50 22.4 50 50-22.4 50-50 50z m0-70.1c-11 0-20 9-20 20s9 20 20 20 20-9 20-20-9-20-20-20z" />
    <!-- Other die -->
    <path d="M932 500.3L691.2 635.9c-37.1 20.9-84 7.7-104.9-29.3L450.7 365.8c-20.9-37.1-7.7-84 29.3-104.9l240.8-135.6c37.1-20.9 84-7.7 104.9 29.3l135.6 240.8c20.9 37.1 7.7 84.1-29.3 104.9z" mask="url(#die-3)" />
    <path d="M653.5 660.8c-32.2 0-63.5-16.9-80.3-46.9L437.6 373.1c-12.1-21.4-15.1-46.3-8.4-69.9s22.1-43.4 43.5-55.4l240.8-135.6c21.4-12.1 46.3-15.1 69.9-8.4 23.7 6.6 43.4 22.1 55.4 43.5l135.6 240.8c12.1 21.4 15.1 46.3 8.4 69.9-6.6 23.7-22.1 43.4-43.5 55.4l-7.4-13.1 7.4 13.1L698.5 649c-14.2 8-29.7 11.8-45 11.8z m105-530.4c-10.5 0-20.9 2.7-30.3 8L487.4 273.9c-14.4 8.1-24.8 21.4-29.3 37.3s-2.4 32.7 5.7 47.1l135.6 240.8c16.8 29.8 54.7 40.4 84.5 23.6l240.8-135.6c14.4-8.1 24.8-21.4 29.3-37.3 4.5-16 2.4-32.7-5.7-47.1L812.7 162c-8.1-14.4-21.4-24.8-37.3-29.3-5.6-1.6-11.3-2.3-16.9-2.3z" />
    <path d="M706 380.6m-35 0a35 35 0 1 0 70 0 35 35 0 1 0-70 0Z" />
    <path d="M706.1 430.7c-4.5 0-9.1-0.6-13.5-1.9-12.9-3.6-23.6-12-30.1-23.6-6.6-11.6-8.2-25.1-4.6-38 3.6-12.9 12-23.6 23.6-30.1 11.6-6.6 25.1-8.2 38-4.6 12.9 3.6 23.6 12 30.1 23.6 6.6 11.6 8.2 25.1 4.6 38-3.6 12.9-12 23.6-23.6 30.1-7.7 4.3-16.1 6.5-24.5 6.5z m-0.1-70.1c-3.4 0-6.8 0.9-9.8 2.6-4.7 2.6-8 6.9-9.5 12.1-1.4 5.2-0.8 10.6 1.8 15.2 2.6 4.7 6.9 8 12.1 9.5 5.2 1.4 10.6 0.8 15.2-1.8 4.7-2.6 8-6.9 9.5-12.1 1.4-5.2 0.8-10.6-1.8-15.2-2.6-4.7-6.9-8-12.1-9.5-1.8-0.6-3.6-0.8-5.4-0.8z" />
    <path d="M560.2 329.3m-35 0a35 35 0 1 0 70 0 35 35 0 1 0-70 0Z" />
    <path d="M560.2 379.3c-17.5 0-34.5-9.2-43.7-25.5-13.5-24-5-54.6 19.1-68.1 24-13.5 54.6-5 68.1 19.1 13.5 24 5 54.6-19.1 68.1-7.6 4.4-16.1 6.4-24.4 6.4z m-0.1-70c-3.3 0-6.7 0.8-9.8 2.6-9.6 5.4-13 17.7-7.6 27.3 5.4 9.6 17.7 13 27.3 7.6 9.6-5.4 13-17.7 7.6-27.3-3.7-6.5-10.5-10.2-17.5-10.2z" />
    <path d="M851.8 431.9m-35 0a35 35 0 1 0 70 0 35 35 0 1 0-70 0Z" />
    <path d="M851.9 481.9c-17.5 0-34.5-9.2-43.7-25.5-13.5-24-5-54.6 19.1-68.1 24-13.5 54.6-5 68.1 19.1 13.5 24 5 54.6-19.1 68.1-7.7 4.4-16.1 6.4-24.4 6.4z m-0.1-70c-3.3 0-6.7 0.8-9.8 2.6-9.6 5.4-13 17.7-7.6 27.3 5.4 9.6 17.7 13 27.3 7.6 9.6-5.4 13-17.7 7.6-27.3-3.7-6.6-10.5-10.2-17.5-10.2z" />
  </g>

  <!-- Cards -->
  <g transform="scale(0.15) translate(0,325)" fill="currentColor">
    <path d="M130.057,139.984c-8.082,0-14.657,6.576-14.657,14.658c0,5.488-4.45,9.938-9.938,9.938c-5.487,0-9.938-4.449-9.938-9.938
      c0-8.082-6.575-14.658-14.658-14.658c-8.082,0-14.657,6.576-14.657,14.658c0,19.461,25.223,38.013,39.253,46.092
      c14.031-8.079,39.254-26.631,39.254-46.092C144.715,146.56,138.14,139.984,130.057,139.984z"/>
    <path d="M177.51,45.08H33.413c-7.123,0-12.919,5.796-12.919,12.919v226.082c0,7.123,5.796,12.919,12.919,12.919H177.51
      c7.123,0,12.919-5.796,12.919-12.919V57.998C190.429,50.875,184.633,45.08,177.51,45.08z M51.619,71.088
      c3.483,0,6.308,2.824,6.308,6.308c0-3.483,2.824-6.308,6.307-6.308c3.484,0,6.309,2.824,6.309,6.308
      c0,10.513-12.615,14.717-12.615,14.717s-12.615-4.204-12.615-14.717C45.312,73.913,48.136,71.088,51.619,71.088z M105.461,221.97
      c-1.522,0-3.045-0.35-4.443-1.049c-2.233-1.116-54.686-27.785-54.686-66.279c0-19.041,15.492-34.533,34.533-34.533
      c9.618,0,18.329,3.951,24.596,10.316c6.268-6.365,14.979-10.316,24.596-10.316c19.042,0,34.534,15.492,34.534,34.533
      c0,38.494-52.452,65.163-54.686,66.279C108.507,221.621,106.984,221.97,105.461,221.97z M153.328,273.972
      c0,0-12.615-4.204-12.615-14.717c0-3.483,2.824-6.308,6.309-6.308c3.482,0,6.307,2.824,6.307,6.308
      c0-3.483,2.824-6.308,6.307-6.308c3.484,0,6.309,2.824,6.309,6.308C165.943,269.768,153.328,273.972,153.328,273.972z"/>
    <path d="M274.728,62.624c-2.188-4.846-6.122-8.545-11.079-10.416L128.852,1.285c-10.249-3.875-21.742,1.313-25.617,11.567
      l-6.919,18.315h81.194c14.795,0,26.831,12.036,26.831,26.831v207.438l70.876-187.611C277.09,72.869,276.916,67.47,274.728,62.624z"
      />
  </g>
  <g transform="scale(2.5) translate(10, 0)" stroke="none" stroke-width="1" fill="currentColor" fill-rule="evenodd">
    <g transform="translate(1.000000, 1.000000)">
      <path d="M5.352,6.083 C5.352,6.083 5.021,5.041 3.35,5.041 C1.679,5.041 1.344,7.047 1.344,7.047 L0.008,13.021 C0.008,14.127 0.843,15.026 2.013,15.026 C3.052,15.026 3.872,13.312 4.317,12.124 C4.547,12.267 4.815,12.353 5.104,12.353 C5.877,12.353 6.637,11.638 6.721,10.888 L9.471,10.888 C9.555,11.638 10.055,12.353 10.827,12.353 C11.142,12.353 11.435,12.255 11.677,12.089 C12.114,13.277 12.924,15.027 13.918,15.027 C15.423,15.027 15.924,14.129 15.924,13.022 L14.588,7.048 C14.588,7.048 14.337,5.042 12.582,5.042 C10.827,5.042 10.701,6.084 10.701,6.084 L5.352,6.084 L5.352,6.083 Z" class="si-glyph-fill" />
      <path d="M9.041,6.459 L8.041,6.459 L8.041,4.307 C8.031,4.3 7.88,3.38 8.441,2.677 C8.811,2.215 9.377,1.981 10.124,1.981 C11.754,1.981 12,1.545 12,0.043 L13,0.043 C13,1.878 12.52,3.014 10.124,3.014 C9.693,3.014 9.387,3.121 9.217,3.332 C8.945,3.667 9.033,4.207 9.033,4.207 L9.041,6.459 L9.041,6.459 Z" class="si-glyph-fill" />
    </g>
  </g>
</svg>
