<svg xmlns="http://www.w3.org/2000/svg" width="100" height="100" viewBox="0 0 100 100">
  <g transform="translate(-5 5)" fill="currentColor">
    <!-- Hammer -->
    <g transform="translate(-10 50) rotate(-45)">
      <!-- Handle -->
      <rect x="45" y="20" width="10" height="60" fill="currentColor"/>
    
      <!-- Head -->
      <g transform="translate(25 5)">
        <polygon transform="translate(10 15) scale(0.5)" points="0,0 0,10 10,0" />
        <polygon
          transform="translate(10 5) scale(0.5) rotate(-90)"
          points="0,0 0,10 10,0"
        />
        <rect x="0" y="0" width="10" height="20" fill="currentColor" />
        <rect x="10" y="5" width="30" height="10" fill="currentColor" />
        <polygon
          transform="translate(40 15) rotate(-90)"
          points="0,0 0,10 10,0"
        />
      </g>
    </g>
  
    <!-- Spanner -->
    <g transform="translate(55 -20) rotate(45)">
      <polygon transform="translate(55 10) rotate(0)" points="0,0 0,10 10,0" />
      <polygon transform="translate(45 10) rotate(90)" points="0,0 0,10 10,0" />
      <polygon transform="translate(45 10) rotate(180)" points="0,0 0,10 10,0" />
      <polygon transform="translate(55 10) rotate(-90)" points="0,0 0,10 10,0" />
      <rect x="45" y="10" width="10" height="70" fill="currentColor"/>
    </g>
  </g>
</svg>
